<?xml version="1.0" standalone="no"?>
<!DOCTYPE svg PUBLIC "-//W3C//DTD SVG 20010904//EN"
 "http://www.w3.org/TR/2001/REC-SVG-20010904/DTD/svg10.dtd">
<svg version="1.0" xmlns="http://www.w3.org/2000/svg"
 width="512.000000pt" height="512.000000pt" viewBox="0 0 512.000000 512.000000"
 preserveAspectRatio="xMidYMid meet">
<metadata>
Created by potrace 1.14, written by Peter Selinger 2001-2017
</metadata>
<g transform="translate(0.000000,512.000000) scale(0.100000,-0.100000)"
fill="#000000" stroke="none">
<path d="M2558 4315 c-2 -1 -26 -5 -54 -9 -53 -6 -129 -30 -149 -46 -7 -5 -15
-7 -18 -3 -4 3 -7 2 -7 -3 0 -5 -16 -18 -35 -28 -19 -11 -35 -23 -35 -28 0 -4
-4 -7 -8 -5 -19 5 -152 -154 -152 -182 0 -6 -4 -11 -10 -11 -5 0 -10 -9 -10
-19 0 -11 -4 -22 -9 -25 -22 -14 -45 -157 -46 -284 0 -71 3 -85 18 -94 14 -7
17 -17 12 -36 -4 -15 -11 -30 -18 -34 -15 -9 -16 -135 -1 -164 7 -13 10 -24 6
-24 -4 0 0 -5 8 -10 13 -9 13 -11 0 -20 -13 -9 -13 -10 0 -10 13 0 13 -1 0
-10 -8 -5 -10 -10 -5 -10 6 0 3 -6 -6 -13 -13 -10 -15 -48 -14 -282 0 -148 -1
-278 -3 -287 -3 -14 -15 -18 -48 -18 -39 0 -44 3 -44 23 0 26 -26 60 -57 76
-12 6 -58 11 -103 11 -77 0 -83 -2 -111 -29 l-29 -29 0 -180 c0 -196 11 -275
55 -407 27 -80 63 -157 78 -163 4 -2 7 -8 7 -14 0 -11 54 -91 90 -132 61 -71
165 -166 181 -166 5 0 9 -4 9 -10 0 -5 4 -10 10 -10 5 0 34 -16 64 -35 29 -19
56 -31 60 -28 3 4 6 2 6 -4 0 -5 19 -16 43 -23 67 -22 91 -48 62 -68 -6 -4
-10 -14 -10 -22 0 -8 -5 -21 -11 -27 -7 -7 -14 -18 -16 -25 -3 -9 -42 -12
-139 -13 -74 -1 -144 -5 -156 -9 -42 -14 -57 -53 -55 -148 2 -95 16 -131 55
-142 12 -3 300 -6 640 -6 632 0 639 0 677 38 16 16 27 142 16 185 -7 28 -34
60 -61 72 -11 5 -98 9 -192 10 -95 1 -176 4 -180 8 -13 13 -9 107 4 107 7 0
13 5 13 11 0 5 4 8 9 4 5 -3 12 -1 16 5 3 5 13 10 21 10 15 0 125 48 134 59 3
3 19 13 35 21 17 8 35 22 42 30 7 8 13 12 13 8 0 -9 37 21 87 69 18 18 33 30
33 26 0 -3 10 7 22 23 12 16 25 31 28 34 3 3 21 25 40 50 19 25 39 48 45 52 6
5 6 8 0 8 -6 0 -6 3 0 8 6 4 27 39 45 77 19 39 40 73 45 77 6 4 7 8 2 8 -4 0
-1 13 8 30 8 16 15 33 15 37 1 5 5 26 11 48 25 92 35 204 33 368 -2 145 -11
187 -39 187 -8 0 -15 4 -15 8 0 11 -117 15 -164 6 -37 -6 -63 -36 -69 -76 -3
-20 -11 -23 -50 -26 l-46 -3 -5 303 c-2 167 -5 312 -5 323 -1 11 1 61 5 110 6
82 4 92 -15 114 -16 18 -18 28 -10 42 5 11 6 19 2 19 -4 0 0 5 10 11 16 10 18
23 16 122 -3 117 -18 196 -50 259 -11 21 -16 38 -12 38 5 0 3 4 -2 8 -6 4 -23
26 -39 50 -40 59 -156 174 -156 155 0 -3 -10 3 -22 14 -26 22 -101 55 -166 73
-40 10 -167 22 -174 15z"/>
<path d="M3623 982 c-1 -22 0 -24 9 -8 6 10 6 22 2 26 -5 5 -10 -3 -11 -18z"/>
</g>
</svg>
